# xmcd CD database file
#
# Track frame offsets:
#	150
#	2503
#	10888
#	22639
#	35398
#	49865
#	62259
#	73287
#	82462
#	91044
#	100671
#	111550
#	120707
#	128265
#	137764
#	147587
#	163569
#	172995
#	194393
#
# Disc length: 2828 seconds
#
# Revision: 0
# Processed by: cddbd v1.5.2PL0 Copyright (c) Steve Scherf et al.
# Submitted via: CDex 1.51
#
DISCID=f50b0a13
DTITLE=Spencer Bohren - Down The Dirt Road Blues
DYEAR=2009
DGENRE=Blues
TTITLE0=Africa
TTITLE1=Slavery Days
TTITLE2=Homemade Banjo
TTITLE3=Birth Of The Blues
TTITLE4=Delta Slide
TTITLE5=Jug Band Music
TTITLE6=Take To The Hills
TTITLE7=Blue Yodel
TTITLE8=Back To The Delta
TTITLE9=Nashville Bound
TTITLE10=North To Chicago
TTITLE11=Urban Shuffle
TTITLE12=Rock`n Roll
TTITLE13=English Invasion
TTITLE14=Folk Boom
TTITLE15=Full Circle
TTITLE16=Down The Dirt Road Blues
TTITLE17=Goin' Down The Bayou
TTITLE18=Blues Stay Away From Me
EXTD=YEAR: 2009
EXTT0=
EXTT1=
EXTT2=
EXTT3=
EXTT4=
EXTT5=
EXTT6=
EXTT7=
EXTT8=
EXTT9=
EXTT10=
EXTT11=
EXTT12=
EXTT13=
EXTT14=
EXTT15=
EXTT16=
EXTT17=
EXTT18=
PLAYORDER=
